<svg width="34" height="34" viewBox="0 0 34 34" fill="none" xmlns="http://www.w3.org/2000/svg">
<path d="M18.1111 8.11111C18.1111 7.81643 17.994 7.53381 17.7857 7.32544C17.5773 7.11706 17.2947 7 17 7C16.7053 7 16.4227 7.11706 16.2143 7.32544C16.006 7.53381 15.8889 7.81643 15.8889 8.11111V15.8889H8.11111C7.81643 15.8889 7.53381 16.006 7.32544 16.2143C7.11706 16.4227 7 16.7053 7 17C7 17.2947 7.11706 17.5773 7.32544 17.7857C7.53381 17.994 7.81643 18.1111 8.11111 18.1111H15.8889V25.8889C15.8889 26.1836 16.006 26.4662 16.2143 26.6746C16.4227 26.8829 16.7053 27 17 27C17.2947 27 17.5773 26.8829 17.7857 26.6746C17.994 26.4662 18.1111 26.1836 18.1111 25.8889V18.1111H25.8889C26.1836 18.1111 26.4662 17.994 26.6746 17.7857C26.8829 17.5773 27 17.2947 27 17C27 16.7053 26.8829 16.4227 26.6746 16.2143C26.4662 16.006 26.1836 15.8889 25.8889 15.8889H18.1111V8.11111Z" fill="black"/>
</svg>
