<svg width="82" height="82" viewBox="0 0 82 82" fill="none" xmlns="http://www.w3.org/2000/svg">
<g clip-path="url(#clip0_17_148)">
<path d="M65.0965 11.4391L62.6832 11.397L62.524 20.5212C62.1239 22.8015 60.6333 23.3029 58.4626 22.6947L10.7036 10.4898L7.33738 10.4311C-0.43421 10.2954 0.645286 0.289621 7.51231 0.409485L65.2714 1.41767C72.7748 1.54865 73.4688 11.5854 65.0965 11.4393L65.0965 11.4391ZM11.6187 21.9471L59.3326 33.693C62.9095 34.5737 64.3381 29.5121 60.7613 28.6315L13.0473 16.8858C9.3967 15.9871 7.96814 21.0486 11.6189 21.9472L11.6187 21.9471ZM11.4294 32.7914L59.1433 44.5371C62.7203 45.4178 64.1488 40.3562 60.572 39.4757L12.858 27.7299C9.20741 26.8312 7.77885 31.8928 11.4296 32.7914L11.4294 32.7914ZM11.2402 43.6357L58.954 55.3814C62.531 56.2621 63.9595 51.2005 60.3828 50.32L12.6687 38.5742C9.01812 37.6755 7.58957 42.737 11.2403 43.6357L11.2402 43.6357ZM56.272 71.8932L12.7122 60.734C10.9487 60.2284 9.43433 60.3729 8.83602 62.9093L8.69726 70.859L4.7508 70.7901C-0.949842 70.6906 -1.11707 80.271 4.58358 80.3705L65.3913 81.4319C70.5792 81.5225 72.5007 71.9727 64.2044 71.8279L56.2722 71.8934L56.272 71.8932ZM59.0705 66.7922C69.7045 67.1149 74.569 70.5522 74.5923 78.5354C74.6025 82.0472 80.2344 82.0464 80.2243 78.5346C79.8185 65.4602 70.9431 62.0142 59.882 61.4631L12.4731 49.7923C8.82247 48.8938 7.39392 53.9551 11.0447 54.8538L59.0709 66.7922L59.0705 66.7922Z" fill="black"/>
</g>
<defs>
<clipPath id="clip0_17_148">
<rect width="80" height="80" fill="white" transform="translate(1.70416 0.308105) rotate(1)"/>
</clipPath>
</defs>
</svg>
