<svg width="60" height="60" viewBox="0 0 60 60" fill="none" xmlns="http://www.w3.org/2000/svg">
<path d="M30 15C27.3926 15.0033 24.8929 16.0406 23.0492 17.8843C21.2055 19.728 20.1683 22.2276 20.165 24.835H25.165C25.165 22.1675 27.335 20 30 20C32.665 20 34.835 22.1675 34.835 24.835C34.835 26.33 33.6325 27.415 31.795 28.9C31.1947 29.3702 30.6182 29.87 30.0675 30.3975C27.5725 32.89 27.5 35.5375 27.5 35.8325V37.5H32.5L32.4975 35.9175C32.5 35.8775 32.58 34.9525 33.6 33.935C33.975 33.56 34.4475 33.185 34.9375 32.79C36.885 31.2125 39.8325 28.83 39.8325 24.835C39.8305 22.2276 38.794 19.7276 36.9506 17.8837C35.1071 16.0398 32.6073 15.0026 30 15ZM27.5 40H32.5V45H27.5V40Z" fill="black"/>
<path d="M30 5C16.215 5 5 16.215 5 30C5 43.785 16.215 55 30 55C43.785 55 55 43.785 55 30C55 16.215 43.785 5 30 5ZM30 50C18.9725 50 10 41.0275 10 30C10 18.9725 18.9725 10 30 10C41.0275 10 50 18.9725 50 30C50 41.0275 41.0275 50 30 50Z" fill="black"/>
</svg>
