<svg width="25" height="25" viewBox="0 0 25 25" fill="none" xmlns="http://www.w3.org/2000/svg">
<path d="M13.0884 6.66504H11.9141C11.8066 6.66504 11.7187 6.75293 11.7187 6.86035V13.5815C11.7187 13.645 11.748 13.7036 11.7993 13.7402L15.835 16.687C15.9228 16.7505 16.0449 16.7334 16.1084 16.6455L16.8066 15.6934C16.8726 15.603 16.853 15.481 16.7651 15.4199L13.2837 12.9028V6.86035C13.2837 6.75293 13.1958 6.66504 13.0884 6.66504ZM18.4546 8.50098L22.2827 9.43604C22.4048 9.46534 22.5244 9.37256 22.5244 9.24805L22.5439 5.30518C22.5439 5.1416 22.356 5.04883 22.229 5.15137L18.3813 8.15674C18.3523 8.17924 18.3301 8.20948 18.3175 8.244C18.3048 8.27852 18.3022 8.31591 18.3098 8.35187C18.3175 8.38783 18.3351 8.4209 18.3607 8.44728C18.3863 8.47366 18.4189 8.49227 18.4546 8.50098V8.50098ZM22.5488 15.8521L21.1645 15.376C21.1163 15.3594 21.0635 15.3624 21.0174 15.3843C20.9713 15.4062 20.9356 15.4453 20.918 15.4932C20.8716 15.6177 20.8227 15.7398 20.7715 15.8618C20.3369 16.8897 19.7143 17.8149 18.9185 18.6084C18.1314 19.3979 17.1986 20.0272 16.1719 20.4614C15.1082 20.9111 13.9649 21.142 12.8101 21.1401C11.6431 21.1401 10.5127 20.9131 9.44824 20.4614C8.42148 20.0272 7.48871 19.3979 6.70165 18.6084C5.9082 17.8149 5.28564 16.8897 4.84863 15.8618C4.4014 14.7976 4.17227 13.6544 4.1748 12.5C4.1748 11.333 4.40185 10.2002 4.85351 9.13575C5.28808 8.10791 5.91064 7.18262 6.70654 6.38916C7.4936 5.59966 8.42636 4.97036 9.45312 4.53614C10.5127 4.08448 11.6455 3.85742 12.8125 3.85742C13.9795 3.85742 15.1099 4.08448 16.1743 4.53614C17.2011 4.97036 18.1338 5.59966 18.9209 6.38916C19.1699 6.64063 19.4043 6.90186 19.6191 7.17774L21.0791 6.03516C19.1577 3.5791 16.167 1.99951 12.8076 2.00196C6.958 2.0044 2.26074 6.75538 2.31933 12.6074C2.37792 18.3569 7.05322 22.9981 12.8125 22.9981C17.3413 22.9981 21.1987 20.127 22.6685 16.106C22.7051 16.0034 22.6514 15.8887 22.5488 15.8521V15.8521Z" fill="black"/>
</svg>
