<svg width="70" height="70" viewBox="0 0 70 70" fill="none" xmlns="http://www.w3.org/2000/svg">
<path d="M26.9231 67.5002V49.9763C26.9231 48.7514 28.2692 47.5014 29.6154 47.5014H40.3846C41.7308 47.5014 43.0769 48.7514 43.0769 50.0013V67.5002C43.0769 68.1632 43.3606 68.799 43.8655 69.2678C44.3704 69.7366 45.0552 70 45.7692 70H67.3077C68.0217 70 68.7065 69.7366 69.2114 69.2678C69.7163 68.799 70 68.1632 70 67.5002V32.5024C70.0006 32.1739 69.9315 31.8485 69.7966 31.5448C69.6617 31.2411 69.4637 30.9651 69.2138 30.7325L61.9231 23.9679V7.50399C61.9231 6.84099 61.6394 6.20515 61.1345 5.73634C60.6296 5.26753 59.9448 5.00415 59.2308 5.00415H53.8461C53.1321 5.00415 52.4473 5.26753 51.9424 5.73634C51.4375 6.20515 51.1538 6.84099 51.1538 7.50399V13.9686L36.9062 0.734422C36.6561 0.501621 36.359 0.316918 36.0319 0.190894C35.7048 0.0648698 35.3541 0 35 0C34.6459 0 34.2952 0.0648698 33.9681 0.190894C33.641 0.316918 33.3439 0.501621 33.0938 0.734422L0.786158 30.7325C0.536302 30.9651 0.338266 31.2411 0.203372 31.5448C0.0684786 31.8485 -0.000627575 32.1739 4.2942e-06 32.5024V67.5002C4.2942e-06 68.1632 0.283657 68.799 0.788563 69.2678C1.29347 69.7366 1.97827 70 2.69231 70H24.2308C24.9448 70 25.6296 69.7366 26.1345 69.2678C26.6394 68.799 26.9231 68.1632 26.9231 67.5002Z" fill="black"/>
</svg>
