<svg width="80" height="80" viewBox="0 0 80 80" fill="none" xmlns="http://www.w3.org/2000/svg">
<path d="M68 20H64V0H16V20H12C8.8174 20 5.76516 21.2643 3.51472 23.5147C1.26428 25.7652 0 28.8174 0 32V60C0 62.1217 0.842854 64.1566 2.34315 65.6569C3.84344 67.1571 5.87827 68 8 68H16V80H64V68H72C74.1217 68 76.1566 67.1571 77.6569 65.6569C79.1571 64.1566 80 62.1217 80 60V32C80 28.8174 78.7357 25.7652 76.4853 23.5147C74.2348 21.2643 71.1826 20 68 20ZM24 8H56V20H24V8ZM24 72V56H56V72H24ZM68 40H52V32H68V40Z" fill="black"/>
</svg>
