<svg width="80" height="80" viewBox="0 0 80 80" fill="none" xmlns="http://www.w3.org/2000/svg">
<g clip-path="url(#clip0_17_143)">
<path fill-rule="evenodd" clip-rule="evenodd" d="M77.64 14.8651C78.3361 15.1429 78.933 15.6229 79.3536 16.2432C79.7743 16.8635 79.9994 17.5956 80 18.3451V61.6551C79.9994 62.4046 79.7743 63.1367 79.3536 63.757C78.933 64.3773 78.3361 64.8573 77.64 65.1351L41.39 79.6351C40.4961 79.9926 39.4989 79.9926 38.605 79.6351L2.355 65.1351C1.65984 64.8565 1.06403 64.3761 0.644303 63.7559C0.224578 63.1357 0.0001743 62.404 0 61.6551L0 18.3451C0.0001743 17.5962 0.224578 16.8645 0.644303 16.2442C1.06403 15.624 1.65984 15.1437 2.355 14.8651L37.215 0.920075L37.235 0.915075L38.605 0.365075C39.5004 0.00623818 40.4996 0.00623818 41.395 0.365075L42.765 0.915075L42.785 0.920075L77.64 14.8651V14.8651ZM70.77 17.5001L40 29.8101L9.23 17.5001L5 19.1951V21.1951L37.5 34.1951V73.8051L40 74.8051L42.5 73.8051V34.2001L75 21.2001V19.2001L70.77 17.5051V17.5001Z" fill="black"/>
</g>
<defs>
<clipPath id="clip0_17_143">
<rect width="80" height="80" fill="white"/>
</clipPath>
</defs>
</svg>
