<svg width="24" height="24" viewBox="0 0 24 24" fill="none" xmlns="http://www.w3.org/2000/svg">
<path fill-rule="evenodd" clip-rule="evenodd" d="M17.3257 14.8987L22.7057 20.2787C22.8948 20.468 23.001 20.7246 23.0009 20.9921C23.0008 21.2596 22.8945 21.5161 22.7052 21.7052C22.516 21.8943 22.2594 22.0005 21.9919 22.0004C21.7244 22.0003 21.4678 21.894 21.2787 21.7047L15.8987 16.3247C14.2905 17.5704 12.268 18.1566 10.2429 17.9641C8.21772 17.7716 6.34198 16.8148 4.99723 15.2884C3.65248 13.7619 2.93973 11.7806 3.004 9.74729C3.06826 7.71402 3.9047 5.7816 5.34315 4.34315C6.7816 2.9047 8.71402 2.06826 10.7473 2.004C12.7806 1.93973 14.7619 2.65248 16.2884 3.99723C17.8148 5.34198 18.7716 7.21772 18.9641 9.24287C19.1566 11.268 18.5704 13.2905 17.3247 14.8987H17.3257ZM11.0007 15.9997C12.592 15.9997 14.1182 15.3676 15.2434 14.2424C16.3686 13.1172 17.0007 11.591 17.0007 9.99974C17.0007 8.40845 16.3686 6.88232 15.2434 5.7571C14.1182 4.63189 12.592 3.99974 11.0007 3.99974C9.40944 3.99974 7.88332 4.63189 6.7581 5.7571C5.63289 6.88232 5.00074 8.40845 5.00074 9.99974C5.00074 11.591 5.63289 13.1172 6.7581 14.2424C7.88332 15.3676 9.40944 15.9997 11.0007 15.9997V15.9997Z" fill="black"/>
</svg>
