<svg width="60" height="60" viewBox="0 0 60 60" fill="none" xmlns="http://www.w3.org/2000/svg">
<path d="M50.625 31.425V28.5563L54.225 25.4063C54.8886 24.8214 55.3241 24.0207 55.4545 23.1458C55.5848 22.2709 55.4017 21.378 54.9375 20.625L50.5125 13.125C50.1837 12.5555 49.7109 12.0825 49.1416 11.7534C48.5722 11.4243 47.9263 11.2507 47.2687 11.25C46.8612 11.2469 46.4559 11.3102 46.0687 11.4375L41.5125 12.975C40.7258 12.4523 39.9053 11.9825 39.0562 11.5688L38.1 6.84378C37.9285 5.98054 37.4589 5.20511 36.7733 4.65322C36.0878 4.10134 35.2299 3.80817 34.35 3.82503H25.575C24.695 3.80817 23.8372 4.10134 23.1516 4.65322C22.4661 5.20511 21.9964 5.98054 21.825 6.84378L20.8687 11.5688C20.0136 11.9824 19.1868 12.4522 18.3937 12.975L13.9312 11.3625C13.5399 11.2606 13.1347 11.2226 12.7312 11.25C12.0736 11.2507 11.4278 11.4243 10.8584 11.7534C10.2891 12.0825 9.81629 12.5555 9.48749 13.125L5.06249 20.625C4.62484 21.3769 4.46221 22.2575 4.60245 23.1161C4.7427 23.9747 5.17709 24.7578 5.83124 25.3313L9.37499 28.575V31.4438L5.83124 34.5938C5.15861 35.1713 4.71234 35.9684 4.57161 36.8437C4.43088 37.719 4.60479 38.6158 5.06249 39.375L9.48749 46.875C9.81629 47.4445 10.2891 47.9176 10.8584 48.2467C11.4278 48.5758 12.0736 48.7494 12.7312 48.75C13.1388 48.7532 13.5441 48.6898 13.9312 48.5625L18.4875 47.025C19.2741 47.5478 20.0947 48.0176 20.9437 48.4313L21.9 53.1563C22.0714 54.0195 22.5411 54.795 23.2266 55.3468C23.9122 55.8987 24.77 56.1919 25.65 56.175H34.5C35.3799 56.1919 36.2378 55.8987 36.9233 55.3468C37.6089 54.795 38.0785 54.0195 38.25 53.1563L39.2062 48.4313C40.0614 48.0177 40.8882 47.5479 41.6812 47.025L46.2187 48.5625C46.6059 48.6898 47.0112 48.7532 47.4187 48.75C48.0763 48.7494 48.7222 48.5758 49.2916 48.2467C49.8609 47.9176 50.3337 47.4445 50.6625 46.875L54.9375 39.375C55.3751 38.6232 55.5378 37.7426 55.3975 36.884C55.2573 36.0254 54.8229 35.2423 54.1687 34.6688L50.625 31.425ZM47.2687 45L40.8375 42.825C39.332 44.1002 37.6114 45.0971 35.7562 45.7688L34.425 52.5H25.575L24.2437 45.8438C22.4033 45.153 20.692 44.1579 19.1812 42.9L12.7312 45L8.30623 37.5L13.4062 33C13.0595 31.0591 13.0595 29.0722 13.4062 27.1313L8.30623 22.5L12.7312 15L19.1625 17.175C20.668 15.8998 22.3886 14.903 24.2437 14.2313L25.575 7.50003H34.425L35.7562 14.1563C37.5967 14.8471 39.308 15.8422 40.8187 17.1L47.2687 15L51.6937 22.5L46.5937 27C46.9404 28.9409 46.9404 30.9279 46.5937 32.8688L51.6937 37.5L47.2687 45Z" fill="black"/>
<path d="M30 41.25C27.775 41.25 25.5999 40.5902 23.7498 39.354C21.8998 38.1179 20.4578 36.3609 19.6064 34.3052C18.7549 32.2495 18.5321 29.9875 18.9662 27.8052C19.4003 25.623 20.4717 23.6184 22.0451 22.0451C23.6184 20.4717 25.623 19.4003 27.8052 18.9662C29.9875 18.5321 32.2495 18.7549 34.3052 19.6064C36.3609 20.4578 38.1179 21.8998 39.354 23.7498C40.5902 25.5999 41.25 27.775 41.25 30C41.265 31.4816 40.9843 32.9512 40.4243 34.3229C39.8643 35.6946 39.0361 36.9408 37.9885 37.9885C36.9408 39.0361 35.6946 39.8643 34.3229 40.4243C32.9512 40.9843 31.4816 41.265 30 41.25V41.25ZM30 22.5C29.0088 22.4769 28.0232 22.6551 27.1028 23.0239C26.1824 23.3926 25.3464 23.9442 24.6453 24.6453C23.9442 25.3464 23.3926 26.1824 23.0239 27.1028C22.6551 28.0232 22.4769 29.0088 22.5 30C22.4769 30.9912 22.6551 31.9768 23.0239 32.8972C23.3926 33.8176 23.9442 34.6536 24.6453 35.3547C25.3464 36.0558 26.1824 36.6074 27.1028 36.9761C28.0232 37.3449 29.0088 37.5231 30 37.5C30.9912 37.5231 31.9768 37.3449 32.8972 36.9761C33.8176 36.6074 34.6536 36.0558 35.3547 35.3547C36.0558 34.6536 36.6074 33.8176 36.9761 32.8972C37.3449 31.9768 37.5231 30.9912 37.5 30C37.5231 29.0088 37.3449 28.0232 36.9761 27.1028C36.6074 26.1824 36.0558 25.3464 35.3547 24.6453C34.6536 23.9442 33.8176 23.3926 32.8972 23.0239C31.9768 22.6551 30.9912 22.4769 30 22.5Z" fill="black"/>
</svg>
